<svg width="100" height="100" viewBox="0 0 100 100" fill="none" xmlns="http://www.w3.org/2000/svg">
<g id="Image 13">
<g id="Group">
<g id="Group_2">
<g id="Group_3">
<g id="Group_4">
<g id="Group_5">
<path id="Vector" d="M50 22C34.5607 22 22 34.5607 22 50C22 65.4393 34.5607 78 50 78C65.4393 78 78 65.4393 78 50C78 34.5607 65.4916 22 50 22ZM59.6299 39.428C59.8392 36.5495 61.8804 33.3047 64.1832 33.4617C66.486 33.5664 68.1084 37.1252 67.8991 40.0037C67.6897 42.8822 65.7009 45.0804 63.3981 44.871C61.0953 44.6617 59.4729 42.2542 59.6299 39.428ZM49.686 27.914C52.0411 27.129 55.2336 30.1645 56.1757 33.2523C57.1178 36.3402 56.071 39.4804 53.6636 40.2131C51.3084 40.9981 48.5346 39.114 47.5402 36.0262C46.5458 32.9383 47.2785 28.6991 49.686 27.914ZM37.3869 31.8393C39.7421 31.0542 42.9346 34.0897 43.8766 37.1776C44.8187 40.2654 43.772 43.4056 41.3645 44.1383C39.0093 44.9234 36.2355 43.0393 35.2411 39.9514C34.2467 36.9159 35.0318 32.6243 37.3869 31.8393ZM36.1832 53.6636C34.4561 55.129 31.4729 54.5009 29.6935 52.3028C27.8093 50.1047 27.0766 46.2841 28.9084 44.871C30.6355 43.4056 34.2467 44.8187 36.1308 47.0692C37.9103 49.215 37.9626 52.2505 36.1832 53.6636ZM69.6785 61.671C68.8935 63.8168 66.8 65.3869 64.5495 65.0729C63.2411 64.8635 59.5776 62.1944 54.972 63.5028L53.6636 63.8692C49.6336 65.3346 48.0112 69.8355 47.0168 70.7776C45.3944 72.3477 42.7252 72.243 40.8411 70.9869C38.957 69.6785 38.015 67.428 37.8056 65.2822C37.5963 63.0318 38.1196 60.8336 38.7477 58.6355C40.3178 53.6112 43.5626 48.0112 48.7963 46.3364C54.0299 44.6617 59.9439 47.2785 64.1308 50.471C65.9103 51.8318 67.585 53.3495 68.7888 55.286C69.9402 57.1178 70.4636 59.5776 69.6785 61.671Z" fill="#BDC1CA"/>
</g>
</g>
</g>
</g>
</g>
</g>
</svg>
